<svg width="300" height="300" viewBox="0 0 300 300" fill="none" xmlns="http://www.w3.org/2000/svg">
<rect width="300" height="300" fill="#FF5C28"/>
<path d="M47 149.932C47 135.572 58.6406 123.932 73 123.932C80.8792 123.932 87.9387 127.437 92.706 132.973C97.9533 139.066 104.067 145.573 112.075 146.302L116 146.659L116 146.652C116.029 146.657 116.059 146.662 116.088 146.667L119 146.932C131.69 146.932 142.978 136.654 142.999 123.968C142.989 116.605 139.517 110.057 134.126 105.854L133.048 105.095C126.531 100.5 117.744 101.441 109.86 102.636C102.584 103.739 94.8883 101.762 88.8984 96.5547C78.0613 87.1341 76.9134 70.7112 86.334 59.874C95.7547 49.0373 112.177 47.8891 123.014 57.3096C129.004 62.5169 132.033 69.863 131.953 77.2227C131.867 85.1959 132.157 94.0274 137.613 99.8418L138.553 100.844C138.59 100.877 138.627 100.911 138.664 100.943C138.711 100.984 138.758 101.024 138.805 101.064C139.026 101.253 139.252 101.435 139.483 101.611C139.539 101.654 139.594 101.696 139.649 101.737C139.896 101.921 140.148 102.098 140.404 102.268C141.044 102.691 141.714 103.071 142.411 103.403C142.895 103.634 143.392 103.842 143.9 104.025C144.107 104.1 144.315 104.17 144.525 104.236C144.845 104.337 145.169 104.429 145.497 104.511C145.892 104.609 146.293 104.693 146.698 104.763C147.039 104.821 147.383 104.869 147.73 104.906C148.312 104.968 148.902 105 149.5 105C153.701 105 157.533 103.429 160.446 100.844L161.387 99.8418C166.843 94.0274 167.133 85.1959 167.047 77.2227C166.967 69.863 169.996 62.5169 175.986 57.3096C186.823 47.8891 203.245 49.0373 212.666 59.874C222.087 70.7112 220.939 87.1341 210.102 96.5547C204.112 101.762 196.416 103.739 189.14 102.636C181.256 101.441 172.469 100.5 165.952 105.095L164.874 105.854C159.483 110.057 156.01 116.605 156 123.968C156.021 136.654 167.309 146.932 180 146.932L182.911 146.667C182.941 146.662 182.97 146.658 183 146.652L183 146.659L186.925 146.302C194.933 145.573 201.047 139.066 206.294 132.973C211.061 127.437 218.121 123.932 226 123.932C240.359 123.932 252 135.572 252 149.932C252 149.943 251.999 149.954 251.999 149.966C251.999 149.977 252 149.989 252 150C252 164.359 240.359 176 226 176C218.121 176 211.061 172.495 206.294 166.959C201.047 160.866 194.933 154.358 186.925 153.63L183 153.272L183 153.279C182.97 153.274 182.941 153.271 182.911 153.266L180 153C167.309 153 156.021 163.278 156 175.965C156.01 183.327 159.483 189.875 164.874 194.077L165.952 194.837C172.469 199.432 181.256 198.491 189.14 197.296C196.416 196.193 204.112 198.17 210.102 203.377C220.939 212.798 222.087 229.22 212.666 240.058C203.245 250.894 186.823 252.043 175.986 242.622C169.996 237.415 166.967 230.069 167.047 222.709C167.133 214.736 166.843 205.904 161.387 200.09L160.446 199.088C157.533 196.503 153.701 194.932 149.5 194.932C148.902 194.932 148.312 194.963 147.73 195.025C147.383 195.062 147.039 195.111 146.698 195.169C146.293 195.238 145.892 195.322 145.497 195.421C145.169 195.503 144.845 195.594 144.525 195.695C144.315 195.762 144.107 195.832 143.9 195.906C143.392 196.09 142.895 196.298 142.411 196.528C141.714 196.861 141.044 197.241 140.404 197.664C140.148 197.834 139.896 198.011 139.649 198.194C139.594 198.236 139.539 198.278 139.483 198.32C139.252 198.497 139.026 198.679 138.805 198.867C138.758 198.907 138.711 198.948 138.664 198.988C138.627 199.021 138.59 199.055 138.553 199.088L137.613 200.09C132.157 205.904 131.867 214.736 131.953 222.709C132.033 230.069 129.004 237.415 123.014 242.622C112.177 252.043 95.7547 250.894 86.334 240.058C76.9134 229.22 78.0613 212.798 88.8984 203.377C94.8883 198.17 102.584 196.193 109.86 197.296C117.744 198.491 126.531 199.432 133.048 194.837L134.126 194.077C139.517 189.875 142.989 183.327 142.999 175.965C142.978 163.278 131.691 153 119 153L116.088 153.266C116.059 153.271 116.029 153.274 116 153.279L116 153.272L112.075 153.63C104.067 154.358 97.9533 160.866 92.7061 166.959C87.9387 172.495 80.8792 176 73 176C58.6406 176 47 164.359 47 150L47 149.932Z" fill="#F6F3EF"/>
</svg>
