<svg width="646" height="120" viewBox="0 0 646 120" fill="none" xmlns="http://www.w3.org/2000/svg">
<path d="M78.6504 3.86425C85.2583 -1.84316 95.2713 -1.1475 101.016 5.41796C106.76 11.9837 106.06 21.9332 99.4521 27.6406C95.7999 30.7951 91.1077 31.9932 86.6709 31.3252C81.8637 30.6012 76.506 30.0309 72.5322 32.8144L71.874 33.2744C68.5868 35.8206 66.47 39.7883 66.4639 44.249C66.477 51.9347 73.3596 58.1611 81.0977 58.1611L82.873 58.001C82.8909 57.9979 82.9089 57.9953 82.9268 57.9922V57.9961L85.3203 57.7803C90.2032 57.3389 93.9314 53.3956 97.1309 49.7041C100.038 46.3504 104.342 44.2266 109.146 44.2266C117.902 44.2266 125 51.2799 125 59.9795C125 59.9863 124.999 59.9932 124.999 60C124.999 60.0068 125 60.0137 125 60.0205C125 68.7201 117.902 75.7724 109.146 75.7725C104.342 75.7725 100.038 73.6488 97.1309 70.2949C93.9314 66.6034 90.2032 62.6612 85.3203 62.2197L82.9268 62.0029V62.0068C82.9089 62.0037 82.8909 62.002 82.873 61.999L81.0977 61.8379C73.3595 61.8379 66.4768 68.0651 66.4639 75.751C66.4702 80.2114 68.5871 84.1786 71.874 86.7246L72.5322 87.1846C76.506 89.9683 81.8636 89.3988 86.6709 88.6748C91.1077 88.0068 95.7999 89.2049 99.4521 92.3594C106.06 98.0669 106.76 108.016 101.016 114.582C95.2713 121.147 85.2583 121.843 78.6504 116.136C74.9978 112.981 73.1506 108.53 73.1992 104.071C73.2519 99.2407 73.0751 93.8898 69.748 90.3672L69.1748 89.7607C67.3987 88.1947 65.0614 87.2422 62.5 87.2422C62.1355 87.2422 61.7754 87.2613 61.4209 87.2988C61.2092 87.3213 60.9995 87.3505 60.792 87.3857C60.5448 87.4278 60.3003 87.4795 60.0596 87.5391C59.8597 87.5886 59.6618 87.6439 59.4668 87.7051C59.3387 87.7453 59.2117 87.7879 59.0859 87.833C58.7759 87.9441 58.4728 88.0703 58.1777 88.21C57.7526 88.4113 57.3438 88.6412 56.9541 88.8975C56.7976 89.0004 56.6434 89.1075 56.4932 89.2187C56.4592 89.2439 56.4262 89.2703 56.3926 89.2959C56.2518 89.4029 56.1133 89.5128 55.9785 89.6269C55.9498 89.6512 55.921 89.6756 55.8926 89.7002C55.8698 89.72 55.8478 89.7408 55.8252 89.7607L55.252 90.3672C51.9249 93.8898 51.7481 99.2407 51.8008 104.071C51.8494 108.53 50.0022 112.981 46.3496 116.136C39.7417 121.843 29.7287 121.147 23.9844 114.582C18.2401 108.016 18.94 98.0669 25.5479 92.3594C29.2001 89.2049 33.8923 88.0068 38.3291 88.6748C43.1364 89.3988 48.494 89.9683 52.4678 87.1846L53.126 86.7246C56.4129 84.1786 58.5298 80.2114 58.5361 75.751C58.5232 68.0651 51.6405 61.8379 43.9023 61.8379L42.127 61.999C42.1092 62.002 42.091 62.0037 42.0732 62.0068V62.0029L39.6797 62.2197C34.7968 62.6612 31.0686 66.6034 27.8691 70.2949C24.9622 73.6488 20.6579 75.7725 15.8535 75.7725C7.09785 75.7724 6.65877e-06 68.7201 0 60.0205V59.9795C-3.80272e-07 51.2799 7.09785 44.2266 15.8535 44.2266C20.6577 44.2266 24.9622 46.3504 27.8691 49.7041C31.0686 53.3956 34.7968 57.3389 39.6797 57.7803L42.0732 57.9961V57.9922C42.0911 57.9953 42.1091 57.9979 42.127 58.001L43.9023 58.1611C51.6404 58.1611 58.523 51.9347 58.5361 44.249C58.53 39.7883 56.4132 35.8206 53.126 33.2744L52.4678 32.8144C48.494 30.0309 43.1363 30.6012 38.3291 31.3252C33.8923 31.9932 29.2001 30.7951 25.5479 27.6406C18.9399 21.9332 18.2402 11.9837 23.9844 5.41796C29.7287 -1.1475 39.7417 -1.84316 46.3496 3.86425C50.0022 7.01913 51.8494 11.4699 51.8008 15.9287C51.7481 20.7591 51.9251 26.1093 55.252 29.6318L55.8252 30.2393C55.8478 30.2592 55.8698 30.2801 55.8926 30.2998C55.921 30.3244 55.9498 30.3488 55.9785 30.373C56.1133 30.4871 56.2518 30.5971 56.3926 30.7041C56.4261 30.7295 56.4594 30.7552 56.4932 30.7803C56.6434 30.8915 56.7976 30.9986 56.9541 31.1016C57.3439 31.3579 57.7525 31.5887 58.1777 31.79C58.4727 31.9297 58.7759 32.0559 59.0859 32.167C59.2117 32.2121 59.3388 32.2547 59.4668 32.2949C59.6617 32.3561 59.8597 32.4114 60.0596 32.4609C60.3003 32.5205 60.5448 32.5713 60.792 32.6133C60.9995 32.6485 61.2092 32.6778 61.4209 32.7002C61.7754 32.7377 62.1355 32.7568 62.5 32.7568C65.0614 32.7568 67.3987 31.8053 69.1748 30.2393L69.748 29.6318C73.0749 26.1093 73.2519 20.7591 73.1992 15.9287C73.1506 11.4699 74.9978 7.01913 78.6504 3.86425ZM188.22 31.1162C191.724 31.1642 194.856 31.7873 197.616 32.9873C200.4 34.1873 202.704 35.9159 204.528 38.1719C206.376 40.4038 207.648 43.1158 208.344 46.3076L200.28 47.6758C199.92 45.7318 199.152 44.0639 197.976 42.6719C196.8 41.256 195.36 40.1756 193.656 39.4316C191.952 38.6637 190.104 38.2682 188.112 38.2441C186.192 38.1961 184.428 38.4835 182.82 39.1074C181.236 39.7314 179.964 40.6075 179.004 41.7353C178.068 42.8633 177.6 44.16 177.6 45.624C177.6 47.0639 178.02 48.2283 178.86 49.1162C179.7 50.004 180.732 50.7123 181.956 51.2402C183.204 51.7442 184.44 52.164 185.664 52.5L195.24 55.2002C196.44 55.5362 197.796 55.9915 199.308 56.5674C200.844 57.1194 202.32 57.9002 203.736 58.9082C205.176 59.9161 206.364 61.2598 207.3 62.9394C208.236 64.5955 208.704 66.6841 208.704 69.2041C208.704 71.82 208.176 74.1243 207.12 76.1162C206.064 78.0841 204.612 79.74 202.764 81.084C200.94 82.4039 198.828 83.3993 196.428 84.0713C194.028 84.7433 191.496 85.0801 188.832 85.0801C185.112 85.0801 181.752 84.4439 178.752 83.1719C175.776 81.8759 173.316 80.0399 171.372 77.6641C169.452 75.2641 168.204 72.4198 167.628 69.1318L175.476 67.9434C176.268 71.1114 177.924 73.5834 180.444 75.3594C182.964 77.1113 185.904 77.9873 189.264 77.9873C191.352 77.9873 193.272 77.6636 195.024 77.0156C196.776 76.3436 198.18 75.3958 199.236 74.1719C200.316 72.924 200.855 71.4358 200.855 69.708C200.855 68.772 200.688 67.9436 200.352 67.2236C200.04 66.5037 199.595 65.8795 199.02 65.3516C198.468 64.7997 197.784 64.3322 196.968 63.9482C196.176 63.5402 195.3 63.1913 194.34 62.9033L181.056 58.9795C179.76 58.5955 178.44 58.1039 177.096 57.5039C175.752 56.8799 174.516 56.0758 173.388 55.0918C172.284 54.0838 171.383 52.8477 170.688 51.3838C169.992 49.8958 169.644 48.0953 169.644 45.9834C169.644 42.7916 170.46 40.0917 172.092 37.8838C173.748 35.6518 175.98 33.9717 178.788 32.8437C181.596 31.6918 184.74 31.1162 188.22 31.1162ZM268.197 47.7695C268.61 47.4049 269.041 47.0616 269.493 46.7402C272.013 44.9402 275.109 44.04 278.781 44.04C282.429 44.0401 285.573 44.9403 288.213 46.7402C290.877 48.5162 292.929 50.9519 294.369 54.0478C295.809 57.1197 296.529 60.6116 296.529 64.5234C296.529 68.4114 295.809 71.9161 294.369 75.0361C292.953 78.132 290.925 80.5799 288.285 82.3799C285.669 84.1799 282.549 85.0801 278.925 85.0801C275.205 85.0801 272.084 84.1799 269.564 82.3799C268.757 81.7958 268.014 81.1452 267.333 80.4307V84H260.637V32.1602H268.197V47.7695ZM321.218 44.04C325.466 44.0401 329.09 45.096 332.09 47.208C335.114 49.32 337.105 52.2119 338.065 55.8838L330.577 58.0439C329.833 55.8599 328.609 54.1678 326.905 52.9678C325.225 51.7438 323.293 51.1318 321.109 51.1318C318.637 51.1319 316.609 51.7195 315.025 52.8955C313.441 54.0475 312.265 55.6315 311.497 57.6475C310.729 59.6634 310.334 61.9677 310.31 64.5596C310.334 68.5675 311.246 71.8073 313.046 74.2793C314.87 76.7513 317.557 77.9873 321.109 77.9873C323.533 77.9873 325.49 77.436 326.978 76.332C328.49 75.204 329.642 73.5958 330.434 71.5078L338.065 73.3076C336.793 77.0996 334.694 80.0157 331.766 82.0557C328.838 84.0717 325.285 85.0801 321.109 85.0801C317.125 85.0801 313.741 84.192 310.957 82.416C308.173 80.64 306.038 78.2033 304.55 75.1074C303.086 72.0115 302.341 68.4955 302.317 64.5596C302.341 60.5517 303.109 57.0114 304.621 53.9394C306.133 50.8435 308.294 48.4199 311.102 46.668C313.91 44.916 317.282 44.04 321.218 44.04ZM361.229 44.04C365.117 44.04 368.489 44.916 371.345 46.668C374.201 48.4199 376.409 50.8315 377.969 53.9033C379.529 56.9752 380.309 60.5156 380.309 64.5234C380.309 68.5794 379.517 72.156 377.933 75.2519C376.373 78.3238 374.164 80.7353 371.309 82.4873C368.453 84.2153 365.093 85.0801 361.229 85.0801C357.341 85.08 353.968 84.2041 351.112 82.4521C348.256 80.7001 346.048 78.2878 344.488 75.2158C342.952 72.1198 342.185 68.5554 342.185 64.5234C342.185 60.4677 342.977 56.9039 344.561 53.832C346.145 50.736 348.365 48.3358 351.221 46.6318C354.077 44.9039 357.413 44.0401 361.229 44.04ZM485.858 44.04C490.106 44.0401 493.731 45.096 496.73 47.208C499.754 49.32 501.746 52.2119 502.706 55.8838L495.218 58.0439C494.474 55.8599 493.25 54.1678 491.546 52.9678C489.866 51.7438 487.934 51.1318 485.75 51.1318C483.278 51.1319 481.25 51.7195 479.666 52.8955C478.082 54.0475 476.906 55.6315 476.138 57.6475C475.37 59.6634 474.974 61.9677 474.95 64.5596C474.974 68.5675 475.887 71.8073 477.687 74.2793C479.51 76.7513 482.198 77.9873 485.75 77.9873C488.174 77.9873 490.13 77.436 491.618 76.332C493.13 75.204 494.282 73.5958 495.074 71.5078L502.706 73.3076C501.434 77.0996 499.334 80.0157 496.406 82.0557C493.478 84.0717 489.926 85.0801 485.75 85.0801C481.766 85.0801 478.383 84.1918 475.599 82.416C472.815 80.64 470.678 78.2034 469.19 75.1074C467.726 72.0115 466.982 68.4955 466.958 64.5596C466.982 60.5517 467.75 57.0114 469.262 53.9394C470.774 50.8435 472.934 48.4199 475.742 46.668C478.55 44.916 481.922 44.04 485.858 44.04ZM543.924 44.04C547.812 44.04 551.184 44.916 554.04 46.668C556.896 48.42 559.104 50.8323 560.664 53.9043C562.224 56.9761 563.004 60.5158 563.004 64.5234C563.004 68.5794 562.212 72.156 560.628 75.2519C559.068 78.3239 556.86 80.7363 554.004 82.4883C551.148 84.2162 547.788 85.0801 543.924 85.0801C540.036 85.08 536.664 84.2041 533.808 82.4521C530.952 80.7001 528.744 78.2878 527.184 75.2158C525.648 72.1199 524.88 68.5554 524.88 64.5234C524.88 60.4677 525.672 56.9039 527.256 53.832C528.84 50.736 531.06 48.3358 533.916 46.6318C536.772 44.9039 540.108 44.0401 543.924 44.04ZM223.288 64.2353C223.288 65.7473 223.408 67.308 223.648 68.916C223.912 70.4999 224.392 71.9759 225.088 73.3437C225.808 74.7117 226.804 75.8162 228.076 76.6562C229.372 77.4961 231.052 77.916 233.116 77.916C234.46 77.916 235.732 77.6995 236.932 77.2676C238.132 76.8116 239.176 76.0914 240.064 75.1074C240.976 74.1235 241.685 72.8275 242.188 71.2197C242.716 69.6118 242.98 67.6555 242.98 65.3516V45.1201H250.576V84H243.88V79.3408C242.799 80.7053 241.504 81.8507 239.992 82.7754C237.52 84.2873 234.532 85.0439 231.028 85.0439C228.34 85.0439 226.084 84.612 224.26 83.748C222.436 82.8841 220.948 81.7561 219.796 80.3643C218.668 78.9483 217.804 77.4118 217.204 75.7559C216.604 74.0999 216.196 72.4795 215.98 70.8955C215.764 69.3116 215.656 67.9197 215.656 66.7197V45.1201H223.288V64.2353ZM444.736 44.04C447.712 44.04 450.364 44.5074 452.692 45.4434C455.02 46.3793 456.905 47.7115 458.345 49.4394C459.785 51.1434 460.649 53.1481 460.937 55.4521L453.232 56.8555C452.968 54.9836 452.092 53.5077 450.604 52.4277C449.117 51.3478 447.185 50.7601 444.809 50.6641C442.529 50.5681 440.681 50.9515 439.265 51.8154C437.849 52.6554 437.141 53.8197 437.141 55.3076C437.141 56.1716 437.405 56.9039 437.933 57.5039C438.485 58.1039 439.541 58.6795 441.101 59.2314C442.661 59.7834 444.965 60.4439 448.013 61.2119C451.277 62.0519 453.869 62.9875 455.789 64.0195C457.709 65.0275 459.077 66.2403 459.893 67.6562C460.732 69.0481 461.152 70.7397 461.152 72.7314C461.152 76.5714 459.748 79.5836 456.94 81.7676C454.156 83.9515 450.305 85.0439 445.385 85.0439C440.657 85.0439 436.804 84.0001 433.828 81.9121C430.852 79.8241 429.028 76.8837 428.356 73.0918L436.061 71.9033C436.541 73.9193 437.645 75.5154 439.373 76.6914C441.125 77.8433 443.297 78.4199 445.889 78.4199C448.241 78.4199 450.077 77.9395 451.396 76.9795C452.74 76.0195 453.413 74.6995 453.413 73.0195C453.413 72.0356 453.172 71.2435 452.692 70.6435C452.236 70.0196 451.264 69.4318 449.776 68.8799C448.288 68.3279 446.021 67.6441 442.973 66.8281C439.637 65.9641 436.985 65.0397 435.017 64.0557C433.073 63.0477 431.681 61.8835 430.841 60.5635C430.025 59.2196 429.616 57.5999 429.616 55.7041C429.616 53.3522 430.24 51.2998 431.488 49.5478C432.736 47.7959 434.488 46.4395 436.744 45.4795C439.024 44.5195 441.688 44.0401 444.736 44.04ZM577.827 64.2363C577.827 65.7482 577.948 67.3082 578.188 68.916C578.451 70.4999 578.931 71.9758 579.627 73.3437C580.347 74.7117 581.343 75.8162 582.615 76.6562C583.911 77.4961 585.591 77.916 587.655 77.916C588.999 77.916 590.271 77.6995 591.471 77.2676C592.671 76.8116 593.716 76.0914 594.604 75.1074C595.515 74.1235 596.224 72.8275 596.728 71.2197C597.255 69.6118 597.52 67.6554 597.52 65.3516V45.1201H605.115V84H598.419V79.3408C597.338 80.7053 596.043 81.8507 594.531 82.7754C592.059 84.2873 589.071 85.0439 585.567 85.0439C582.879 85.0439 580.623 84.612 578.799 83.748C576.975 82.8841 575.487 81.7561 574.335 80.3643C573.207 78.9483 572.343 77.4118 571.743 75.7559C571.143 74.0999 570.736 72.4795 570.52 70.8955C570.304 69.3116 570.195 67.9197 570.195 66.7197V45.1201H577.827V64.2363ZM629.432 44.04C632.408 44.04 635.06 44.5074 637.388 45.4434C639.716 46.3793 641.6 47.7115 643.04 49.4394C644.48 51.1434 645.344 53.1481 645.632 55.4521L637.928 56.8555C637.664 54.9836 636.788 53.5077 635.3 52.4277C633.812 51.3478 631.88 50.7601 629.504 50.6641C627.224 50.5681 625.376 50.9515 623.96 51.8154C622.544 52.6554 621.836 53.8197 621.836 55.3076C621.836 56.1716 622.1 56.9039 622.628 57.5039C623.18 58.1039 624.236 58.6795 625.796 59.2314C627.356 59.7834 629.66 60.4439 632.708 61.2119C635.972 62.0519 638.564 62.9875 640.484 64.0195C642.404 65.0275 643.772 66.2403 644.588 67.6562C645.428 69.0481 645.848 70.7398 645.848 72.7314C645.848 76.5714 644.444 79.5836 641.636 81.7676C638.852 83.9515 635 85.0439 630.08 85.0439C625.352 85.0439 621.499 84.0001 618.523 81.9121C615.548 79.8241 613.724 76.8837 613.052 73.0918L620.756 71.9043C621.236 73.9201 622.34 75.5155 624.068 76.6914C625.82 77.8433 627.992 78.4199 630.584 78.4199C632.936 78.4199 634.772 77.9395 636.092 76.9795C637.436 76.0195 638.108 74.6995 638.108 73.0195C638.108 72.0357 637.868 71.2435 637.388 70.6435C636.932 70.0197 635.959 69.4318 634.472 68.8799C632.984 68.3279 630.716 67.6441 627.668 66.8281C624.332 65.9641 621.68 65.0397 619.712 64.0557C617.768 63.0477 616.376 61.8835 615.536 60.5635C614.72 59.2196 614.312 57.5999 614.312 55.7041C614.312 53.3522 614.936 51.2998 616.184 49.5478C617.432 47.7959 619.184 46.4395 621.439 45.4795C623.719 44.5195 626.384 44.0401 629.432 44.04ZM406.768 44.0762C409.456 44.0762 411.712 44.5081 413.536 45.3721C415.36 46.236 416.836 47.3761 417.964 48.792C419.116 50.1839 419.992 51.7083 420.592 53.3643C421.192 55.02 421.599 56.6398 421.815 58.2236C422.031 59.8075 422.14 61.1995 422.14 62.3994V84H414.508V64.8838C414.508 63.3719 414.375 61.8241 414.111 60.2402C413.871 58.6322 413.392 57.1434 412.672 55.7754C411.976 54.4075 410.98 53.3038 409.684 52.4639C408.412 51.6239 406.744 51.2041 404.68 51.2041C403.336 51.2041 402.063 51.4317 400.863 51.8877C399.663 52.3197 398.607 53.0278 397.695 54.0117C396.807 54.9957 396.099 56.2916 395.571 57.8994C395.067 59.5074 394.815 61.4637 394.815 63.7676V84H387.184V45.1201H393.916V49.791C394.997 48.4178 396.292 47.2683 397.804 46.3437C400.276 44.8318 403.264 44.0762 406.768 44.0762ZM517.229 84H509.705V45.1201H517.229V84ZM277.629 50.8437C275.277 50.8437 273.333 51.4194 271.797 52.5713C270.285 53.7232 269.157 55.3317 268.413 57.3955C267.693 59.4594 267.333 61.8356 267.333 64.5234C267.333 67.2113 267.693 69.5874 268.413 71.6514C269.133 73.7154 270.273 75.3357 271.833 76.5117C273.393 77.6877 275.409 78.2754 277.881 78.2754C280.281 78.2754 282.261 77.6634 283.821 76.4394C285.405 75.2155 286.581 73.5716 287.349 71.5078C288.141 69.4198 288.537 67.0914 288.537 64.5234C288.537 61.9796 288.141 59.6752 287.349 57.6113C286.581 55.5476 285.393 53.9036 283.785 52.6797C282.177 51.4557 280.125 50.8438 277.629 50.8437ZM543.924 51.1318C541.404 51.1319 539.328 51.7076 537.696 52.8594C536.064 53.9874 534.852 55.5602 534.06 57.5762C533.268 59.568 532.872 61.8838 532.872 64.5234C532.872 68.6032 533.808 71.8675 535.68 74.3154C537.552 76.7634 540.3 77.9882 543.924 77.9883C547.644 77.9883 550.416 76.7401 552.24 74.2441C554.088 71.7241 555.012 68.4834 555.012 64.5234C555.012 60.4676 554.076 57.2276 552.204 54.8037C550.356 52.3557 547.596 51.1318 543.924 51.1318ZM361.229 51.1318C358.709 51.1319 356.633 51.7076 355.001 52.8594C353.369 53.9874 352.156 55.5602 351.364 57.5762C350.572 59.568 350.177 61.8838 350.177 64.5234C350.177 68.6032 351.113 71.8675 352.984 74.3154C354.856 76.7634 357.605 77.9873 361.229 77.9873C364.948 77.9873 367.721 76.7401 369.545 74.2441C371.393 71.7241 372.316 68.4834 372.316 64.5234C372.316 60.4676 371.381 57.2276 369.509 54.8037C367.661 52.3557 364.901 51.1318 361.229 51.1318ZM517.229 38.748H509.705V31.4394H517.229V38.748Z" fill="#FF5C28"/>
</svg>
